# xmcd CD database file
#
# Track frame offsets:
#	153
#	22240
#	39525
#	62262
#	78519
#	100388
#	120821
#	136354
#	151741
#	171448
#
# Disc length: 2560 seconds
#
# Revision: 0
# Processed by: cddbd v1.5.2PL0 Copyright (c) Steve Scherf et al.
# Submitted via: CDex 1.51
#
DISCID=7809fe0a
DTITLE=Baby Isaac - Ain't Nothing Bad
DYEAR=1999
DGENRE=Blues
TTITLE0=I Got the Blues
TTITLE1=Lollipop Mama
TTITLE2=Outskirts Of Town
TTITLE3=29 Ways
TTITLE4=5 Card Hand
TTITLE5=Ain't No Bad Thing
TTITLE6=Trouble In Mind
TTITLE7=Far Away Baby
TTITLE8=Slow Down
TTITLE9=Wang Dang Doodle
EXTD=YEAR: 1999
EXTT0=
EXTT1=
EXTT2=
EXTT3=
EXTT4=
EXTT5=
EXTT6=
EXTT7=
EXTT8=
EXTT9=
PLAYORDER=
